# xmcd
#
# Track frame offsets:
#	150
#	21302
#	37237
#	55712
#	72407
#	85410
#	96137
#	112810
#	127787
#	140787
#	157440
#	170507
#	186490
#	202597
#	218452
#	230280
#	245057
#	259912
#	276342
#
# Disc length: 3871
#
# Revision: 3
# Processed by: cddbd v1.5.1PL0 Copyright (c) Steve Scherf et al.
# Submitted via: audiograbber 1.82.02
# Normalized: r2:DSETVAR1
#
DISCID=1b0f1d13
DTITLE=Various Artist - SAVA02
DYEAR=1900
DGENRE=Karaoke
TTITLE0=Judds, The - Young Love
TTITLE1=Murray, Anne - You Needed Me
TTITLE2=Mattea, Kathy - Where've You Been
TTITLE3=Stone, Doug - I'd Be Better Off (In A Pine Box)
TTITLE4=Tucker, Tanya - Walking Shoes
TTITLE5=Williams, Hank Jr. - Honky Tonkin'
TTITLE6=Cartwright, Lionel - I Watched It All (On My Radio)
TTITLE7=Nelson, Willie - Ain't It Funny (How Time Slips Away)
TTITLE8=Everly Brothers - All I Have To Do Is Dream
TTITLE9=Shelton, Ricky Van - Living Proof
TTITLE10=Wills, Bob and The Texas Playboys - Roly Poly
TTITLE11=Alabama - Forever's As Far As I'll Go
TTITLE12=Riley, Jeannie C. - Harper Valley P.T.A.
TTITLE13=Reed, Jerry - She Got The Goldmine (I Got The Shaft)
TTITLE14=Williams, Hank Jr. - I Fought The Law
TTITLE15=Orbison, Roy - Oh Pretty Woman
TTITLE16=Haggard, Merle - That's The Way Love Goes
TTITLE17=Judds, The - Why Not Me
TTITLE18=Strait, George - Am I Blue (Yes I'm Blue)
EXTD=
EXTT0=
EXTT1=
EXTT2=
EXTT3=
EXTT4=
EXTT5=
EXTT6=
EXTT7=
EXTT8=
EXTT9=
EXTT10=
EXTT11=
EXTT12=
EXTT13=
EXTT14=
EXTT15=
EXTT16=
EXTT17=
EXTT18=
PLAYORDER=
